<svg width="194" height="30" viewBox="0 0 194 30" xmlns="http://www.w3.org/2000/svg" xmlns:xlink="http://www.w3.org/1999/xlink"><title>WMG-logo</title><defs><path id="a" d="M194 29.967V.003H.032v29.964z"/></defs><g fill="none" fill-rule="evenodd"><mask id="b" fill="#fff"><use xlink:href="#a"/></mask><path d="M188.446 22.194c.742 0 1.446-.183 2.122-.55.671-.366 1.187-.81 1.536-1.344v-5.461c-.35-.545-.87-1.006-1.552-1.378a4.26 4.26 0 0 0-2.106-.561c-1.192 0-2.146.433-2.85 1.306-.709.872-1.064 1.988-1.064 3.35 0 1.366.355 2.477 1.064 3.344.704.861 1.658 1.294 2.85 1.294zm5.553 1.373h-1.895v-1.795c-1.042 1.395-2.411 2.095-4.113 2.095-1.613 0-2.921-.573-3.924-1.711-.998-1.14-1.502-2.673-1.502-4.6 0-1.906.504-3.44 1.502-4.595 1.003-1.155 2.311-1.733 3.924-1.733 1.685 0 3.054.705 4.113 2.116V6.94h1.895v16.628zm-22.803-2.734c.732.911 1.718 1.361 2.966 1.361 1.247 0 2.228-.45 2.954-1.36.72-.9 1.086-2.006 1.086-3.3 0-1.295-.366-2.395-1.086-3.29-.726-.9-1.707-1.344-2.954-1.344-1.248 0-2.234.45-2.966 1.356-.732.905-1.097 2-1.097 3.277 0 1.295.365 2.4 1.097 3.3zm7.344 1.211c-1.103 1.212-2.56 1.823-4.378 1.823s-3.276-.611-4.38-1.823c-1.102-1.21-1.651-2.716-1.651-4.51 0-1.795.549-3.295 1.652-4.5 1.103-1.206 2.56-1.806 4.379-1.806 1.818 0 3.275.6 4.378 1.805 1.103 1.206 1.652 2.706 1.652 4.5 0 1.795-.549 3.3-1.652 4.511zm-21.777-1.21c.731.91 1.718 1.36 2.96 1.36 1.247 0 2.233-.45 2.954-1.36.726-.9 1.086-2.006 1.086-3.3 0-1.295-.36-2.395-1.086-3.29-.72-.9-1.707-1.344-2.955-1.344-1.241 0-2.228.45-2.96 1.356-.737.905-1.102 2-1.102 3.277 0 1.295.365 2.4 1.103 3.3zm7.344 1.21c-1.103 1.212-2.567 1.823-4.385 1.823-1.812 0-3.275-.611-4.373-1.823-1.103-1.21-1.657-2.716-1.657-4.51 0-1.795.554-3.295 1.657-4.5 1.098-1.206 2.56-1.806 4.373-1.806 1.818 0 3.282.6 4.385 1.805 1.097 1.206 1.652 2.706 1.652 4.5 0 1.795-.555 3.3-1.652 4.511zm-19.65 1.845c-2.438 0-4.495-.8-6.158-2.406-1.668-1.6-2.5-3.677-2.5-6.216 0-2.545.832-4.611 2.5-6.206 1.663-1.594 3.72-2.394 6.158-2.394 2.655 0 4.834 1.039 6.535 3.116l-1.668 1.023c-.538-.7-1.236-1.256-2.106-1.673a6.275 6.275 0 0 0-2.76-.622c-1.852 0-3.398.633-4.634 1.906-1.236 1.272-1.857 2.889-1.857 4.85 0 1.96.62 3.577 1.857 4.86 1.236 1.279 2.782 1.917 4.633 1.917a6.26 6.26 0 0 0 2.583-.533c.804-.361 1.447-.778 1.935-1.261v-3.389h-5.781v-1.844h7.876v6.005c-1.735 1.911-3.941 2.867-6.613 2.867zm-13.78-7.478c-.055-.678-.326-1.294-.82-1.844-.498-.55-1.224-.823-2.183-.823-.91 0-1.619.273-2.123.812a3.228 3.228 0 0 0-.882 1.855h6.009zm-2.804 7.456c-1.884 0-3.442-.584-4.667-1.75-1.23-1.161-1.846-2.69-1.846-4.584 0-1.777.593-3.272 1.78-4.489 1.186-1.21 2.699-1.816 4.534-1.816 1.818 0 3.287.61 4.417 1.833 1.125 1.222 1.69 2.817 1.69 4.795v.7h-9.062c.1.8.46 1.46 1.087 1.994.62.533 1.43.794 2.422.794.538 0 1.125-.105 1.751-.322.632-.216 1.137-.505 1.503-.872l1.413 2.044c-1.225 1.112-2.899 1.673-5.022 1.673zm-8.985-.3h-3.608v-11.64l-4.745 11.64h-1.563l-4.745-11.64v11.64h-3.586V6.939h5.022l4.09 10.044L113.84 6.94h5.05v16.628zm-27.36-1.373c.743 0 1.447-.183 2.124-.55.67-.366 1.186-.81 1.535-1.344v-5.461c-.35-.545-.87-1.006-1.547-1.378a4.296 4.296 0 0 0-2.111-.561c-1.192 0-2.145.433-2.85 1.306-.709.872-1.064 1.988-1.064 3.35 0 1.366.355 2.477 1.065 3.344.704.861 1.657 1.294 2.849 1.294zm5.555 1.373h-1.896v-1.795c-1.042 1.395-2.411 2.095-4.113 2.095-1.613 0-2.921-.573-3.924-1.711-.998-1.14-1.502-2.673-1.502-4.6 0-1.906.504-3.44 1.502-4.595 1.003-1.155 2.311-1.733 3.924-1.733 1.685 0 3.054.705 4.113 2.116V6.94h1.896v16.628zm-15.648-6.784c-.017-1.027-.371-1.955-1.059-2.777-.692-.823-1.674-1.234-2.954-1.234-1.214 0-2.167.406-2.866 1.222-.698.817-1.07 1.745-1.12 2.79h8zm-3.786 7.084c-1.818 0-3.309-.59-4.467-1.761-1.159-1.173-1.74-2.695-1.74-4.573 0-1.76.57-3.25 1.718-4.472 1.141-1.222 2.572-1.833 4.29-1.833 1.796 0 3.226.61 4.273 1.833 1.053 1.222 1.58 2.761 1.58 4.622v.473h-9.866c.083 1.183.52 2.166 1.308 2.966.793.8 1.818 1.195 3.082 1.195 1.513 0 2.766-.506 3.758-1.517l.909 1.222c-1.242 1.228-2.86 1.845-4.845 1.845zm-11.562-.3H63.82l-3.714-13.411-3.708 13.41h-2.273L49.33 6.94h2.323l3.736 13.86 3.864-13.861h1.74L64.851 20.8l3.714-13.861h2.322l-4.8 16.628zM26.699 10.36c.46.139.937.228 1.413.345-.715.444-1.319 1.016-1.879 1.65-.937 1.06-1.724 2.227-2.41 3.46-.4.712-.787 1.434-1.175 2.15-.566-1.055-1.137-2.122-1.725-3.183.405-.672.86-1.31 1.38-1.905.394-.44.821-.845 1.32-1.156-.333-.083-.671-.144-.992-.244-.826-.256-1.591-.656-2.328-1.1-1.043-.628-2.023-1.356-3.01-2.072-1.01-.74-2.024-1.484-3.055-2.19C13.352 5.512 12.41 5 11.395 4.64c-.787-.283-1.596-.456-2.433-.433-1.658.044-2.982.75-3.974 2.066-.815 1.084-1.192 2.322-1.097 3.678.121 1.65.886 2.95 2.239 3.889a5.381 5.381 0 0 0 3.087.983c.128 0 .255-.028.388-.028.044 0 .089.05.133.073-.027.039-.05.11-.089.122-.515.167-.964.45-1.38.794-1.103.911-1.807 2.067-1.99 3.495-.205 1.55.255 2.916 1.27 4.089.903 1.05 2.05 1.694 3.436 1.866 1.32.167 2.51-.194 3.592-.939.737-.51 1.353-1.144 1.901-1.85a18.22 18.22 0 0 0 1.236-1.838l.61 1.133c.36.672.732 1.35 1.13 2.022-.47.761-.964 1.5-1.518 2.211-.776 1-1.652 1.906-2.705 2.634-1.54 1.06-3.232 1.572-5.116 1.338-1.974-.25-3.603-1.16-4.889-2.66-1.44-1.667-2.095-3.612-1.812-5.817.266-2.04 1.264-3.678 2.838-4.978.587-.489 1.23-.895 1.961-1.133.056-.017.084-.112.128-.173-.067-.033-.128-.1-.194-.1-.183 0-.366.04-.549.04a7.692 7.692 0 0 1-4.39-1.4c-1.928-1.34-3.02-3.19-3.186-5.54-.139-1.928.398-3.694 1.563-5.24C2.993 1.072 4.877.067 7.238.006c1.192-.034 2.344.216 3.465.616 1.44.511 2.782 1.245 4.046 2.106 1.468 1.005 2.91 2.06 4.35 3.11 1.403 1.023 2.795 2.056 4.285 2.956 1.054.634 2.134 1.206 3.315 1.567zm6.086 4.761c-.189 0-.371-.039-.554-.039-.067 0-.127.067-.189.1.039.061.067.156.122.173.737.238 1.375.644 1.962 1.133 1.575 1.3 2.572 2.939 2.838 4.978.289 2.205-.366 4.15-1.807 5.816-1.29 1.5-2.92 2.411-4.894 2.661-1.879.234-3.575-.277-5.116-1.338-1.047-.728-1.924-1.634-2.705-2.634-1.17-1.505-2.106-3.155-3.004-4.833-.954-1.778-1.901-3.561-2.883-5.322-.687-1.234-1.473-2.4-2.41-3.461-.56-.634-1.164-1.206-1.874-1.65.477-.117.948-.206 1.408-.345.936-.289 1.807-.705 2.655-1.178l.216.156c.76.555 1.541 1.128 2.373 1.672a7.757 7.757 0 0 1-1.176.467c-.32.1-.653.16-.991.244.504.311.925.717 1.319 1.156a13.684 13.684 0 0 1 1.696 2.433c.687 1.239 1.352 2.495 2.022 3.739.627 1.178 1.287 2.339 2.107 3.394.548.706 1.164 1.34 1.901 1.85 1.087.745 2.272 1.106 3.592.94 1.385-.173 2.533-.817 3.436-1.867 1.015-1.173 1.475-2.54 1.275-4.09-.188-1.427-.887-2.583-1.995-3.494-.41-.344-.86-.627-1.38-.794-.034-.011-.055-.083-.084-.122.045-.023.089-.073.133-.073.128 0 .255.028.388.028a5.378 5.378 0 0 0 3.082-.983c1.353-.939 2.123-2.239 2.24-3.889.094-1.356-.283-2.594-1.098-3.678-.992-1.316-2.317-2.022-3.974-2.066-.837-.023-1.646.15-2.428.433-1.02.361-1.962.872-2.843 1.478a97.516 97.516 0 0 0-2.184 1.55 44.16 44.16 0 0 1-2.7-1.817l.017-.011c1.441-1.05 2.883-2.106 4.357-3.111 1.258-.861 2.6-1.595 4.046-2.106 1.12-.4 2.267-.65 3.459-.616 2.361.06 4.245 1.066 5.659 2.938 1.164 1.545 1.696 3.312 1.563 5.24-.166 2.35-1.258 4.2-3.193 5.538a7.662 7.662 0 0 1-4.384 1.4z" fill="#FFF" mask="url(#b)"/></g></svg>